<?xml version="1.0" encoding="UTF-8"?>
<svg preserveAspectRatio="none" version="1.1" viewBox="0 0 90 90" xmlns="http://www.w3.org/2000/svg" xmlns:xlink="http://www.w3.org/1999/xlink">
<defs>
<g id="a">
<path d="m24.8 18.7q0.05-0.4-0.2-0.75t-0.65-0.4q-0.8-0.1-1.5-0.1-5.1 0-8.65 3.55-3.6 3.6-3.6 8.65 0 1.25 0.25 2.35 0.05 0.4 0.4 0.65 0.35 0.2 0.75 0.15 0.4-0.1 0.65-0.45 0.2-0.35 0.15-0.75-0.2-0.9-0.2-1.95 0-4.25 3-7.25 2.95-2.95 7.25-2.95 0.6 0 1.2 0.1 0.4 0.05 0.75-0.2t0.4-0.65m61.2 30.45q0-4.8-3.35-8.25-0.05-0.05-0.1-0.05-0.25-0.25-0.5-0.45l-0.05-0.05q-1.7-1.5-3.65-2.2-1.45-0.5-3-0.6-0.5-0.05-1.05-0.05-4.8 0-8.25 3.4l-5.05 5.05-5.05-5.05q-2.3-2.3-5.3-3.05-1.45-0.35-2.95-0.35-4.85 0-8.3 3.4-3.4 3.45-3.4 8.25 0 1.95 0.6 3.8v-0.05q0.75 2.45 2.8 4.55l21.15 20.85q0.3 0.3 0.7 0.3t0.7-0.3l20.65-20.85h0.05q3.35-3.45 3.35-8.3m-4.75-6.75q2.75 2.8 2.75 6.75 0 4.05-2.8 6.9l-19.95 20.15-20.45-20.15h0.05q-1.7-1.7-2.35-3.75-0.5-1.5-0.5-3.15 0-3.95 2.8-6.8l0.05-0.05q2.85-2.8 6.85-2.8 1.25 0 2.45 0.3 2.5 0.6 4.4 2.5l5.75 5.75q0.3 0.3 0.7 0.3t0.75-0.3l5.75-5.75q2.85-2.8 6.8-2.8 0.45 0 0.85 0.05h0.05q1.3 0.1 2.5 0.5h-0.05q1.6 0.55 3 1.75 0 0.05 0.05 0.05 0.25 0.25 0.55 0.55m-32.3 2.2q0.3 0 0.65 0.1 0.4 0.05 0.75-0.15t0.45-0.6q0.05-0.45-0.15-0.75-0.2-0.4-0.6-0.45-0.6-0.15-1.1-0.15-3.2 0-5.45 2.25-2.3 2.3-2.3 5.5 0 0.85 0.2 1.55 0.1 0.4 0.45 0.6t0.75 0.15q0.4-0.15 0.6-0.5t0.15-0.75q-0.15-0.5-0.15-1.05 0-2.4 1.7-4.1 1.65-1.65 4.05-1.65m35.05-14.4q0 2.25-0.5 4.35-0.1 0.4 0.1 0.75t0.6 0.5q0.4 0.05 0.75-0.15t0.5-0.6q0.55-2.3 0.55-4.85 0-7.75-5.5-13.3-5.5-5.5-13.3-5.5t-13.3 5.5l-8.9 8.9-8.85-8.9q-3.75-3.75-8.55-4.9-2.25-0.6-4.75-0.6-7.8 0-13.35 5.5-5.5 5.55-5.5 13.3 0 3.15 0.95 6.05v-0.05q1.25 4 4.55 7.3l35.25 34.8q0.3 0.3 0.7 0.3t0.7-0.3l3.75-3.8q0.3-0.3 0.3-0.7t-0.3-0.7-0.7-0.3-0.7 0.3l-3.05 3.1-34.55-34.1q-2.9-2.9-4.05-6.5-0.85-2.55-0.85-5.4 0-6.95 4.9-11.9 4.95-4.9 11.95-4.9 2.2 0 4.25 0.55h0.05q4.25 1 7.6 4.35l9.55 9.6q0.3 0.3 0.7 0.3t0.7-0.3l9.6-9.6q4.9-4.9 11.9-4.9t11.9 4.9q4.9 4.95 4.9 11.9z" fill-opacity=".0039216"/>
</g>
<g id="b">
<path d="m23.65 19.55q0.41328 0.053516 0.75-0.2 0.33652-0.24531 0.4-0.65 0.053906-0.41328-0.2-0.75-0.24531-0.33613-0.65-0.4-0.77754-0.10566-1.5-0.1-5.1139 0.0068359-8.65 3.55-3.5969 3.5898-3.6 8.65 0.0027344 1.2568 0.2 2.35 0.10625 0.4002 0.45 0.6 0.34531 0.25605 0.75 0.15 0.39961-0.055859 0.6-0.4 0.25547-0.3459 0.15-0.75-0.15293-0.90684-0.15-1.95-0.0029297-4.24 3-7.25 2.9639-2.9568 7.25-2.95 0.57754 0.0054688 1.2 0.1m58.95 21.35q-0.012109-0.038477-0.05-0.1-0.27188-0.1877-0.5-0.4-0.024609-0.024023-0.05-0.05-1.6875-1.4842-3.65-2.2h-0.05q-1.382-0.48711-2.95-0.6-0.49727-0.053125-1.05-0.05-4.8082-0.0068359-8.25 3.35l-5.05 5.1-5.05-5.05q-2.2936-2.3051-5.3-3.1h-0.05q-1.3836-0.2998-2.9-0.3-4.86-0.0052734-8.3 3.35l-0.05 0.05q-3.3568 3.4418-3.35 8.25 1.9531e-4 1.9691 0.6 3.75 0.75449 2.4684 2.75 4.55h0.05l21.15 20.85q0.29258 0.2957 0.7 0.3 0.4084-0.0046875 0.7-0.3l20.65-20.85q3.4051-3.4402 3.4-8.3 0.0066406-4.8082-3.4-8.25m-1.35 1.45q2.7432 2.8609 2.75 6.8-0.0050781 4.04-2.85 6.9h0.05l-19.95 20.15-20.45-20.15q-1.6547-1.7186-2.3-3.75v-0.05q-0.50039-1.4693-0.5-3.1 0.0066406-3.9744 2.8-6.85 2.8775-2.7951 6.9-2.8 1.2705-3.9062e-4 2.45 0.25 2.4934 0.65508 4.4 2.55l5.75 5.75q0.29023 0.29844 0.7 0.3 0.42344-0.0023438 0.7-0.3l5.75-5.75q2.8756-2.7934 6.85-2.8 0.44707 0.0029297 0.85 0.05 1.343 0.091016 2.5 0.5 1.6066 0.57305 3 1.75 0.023242 0.026953 0.05 0.05 0.25098 0.26309 0.55 0.5m-31.7 2.3q0.42559 0.11875 0.75-0.1 0.37969-0.22246 0.45-0.65 0.11914-0.37617-0.1-0.75-0.22188-0.3293-0.65-0.45-0.54395-0.10117-1.05-0.1-3.2129 0.0058594-5.45 2.25-2.2979 2.2908-2.3 5.5-0.0025391 0.83457 0.15 1.55 0.13555 0.39395 0.5 0.6 0.35293 0.21973 0.75 0.1 0.39336-0.085156 0.6-0.45 0.21934-0.35352 0.1-0.75-0.097656-0.48438-0.1-1.05-0.0021484-2.3908 1.7-4.1 1.6629-1.6559 4.05-1.65 0.29375 0.0011719 0.6 0.05m35.4-9q0.36426-0.20605 0.45-0.6 0.60156-2.3197 0.6-4.85-0.0044922-7.759-5.5-13.3-5.4885-5.4955-13.3-5.5-7.8115 0.0044922-13.3 5.5l-8.9 8.9-8.85-8.9q-3.7482-3.7518-8.55-4.95-2.2697-0.55215-4.75-0.55-7.81 0.0054688-13.35 5.5-5.4955 5.541-5.5 13.3 5.8594e-4 3.1707 0.95 6 1.2672 4.0219 4.55 7.3l35.25 34.8q0.29258 0.2957 0.7 0.3 0.40898-0.0052734 0.7-0.3l3.75-3.8q0.29648-0.28926 0.3-0.7-0.0035156-0.41074-0.3-0.7-0.28926-0.29648-0.7-0.3-0.41074 0.0035156-0.7 0.3l-3.05 3.1-34.55-34.1q-2.9172-2.9219-4.05-6.5v-0.05q-0.85078-2.5207-0.85-5.35-0.0044922-6.9412 4.9-11.9 4.9598-4.9055 11.95-4.9 2.2195 0.0021484 4.25 0.5 4.3072 1.0607 7.65 4.4l9.55 9.6q0.29062 0.29766 0.7 0.3 0.40879-0.0023438 0.7-0.3l9.6-9.6q4.9115-4.9045 11.9-4.9 6.9885-0.0044922 11.9 4.9 4.9045 4.9588 4.9 11.9-0.0015625 2.2697-0.55 4.35-0.069336 0.39648 0.15 0.75 0.20664 0.36484 0.6 0.45 0.39707 0.11973 0.75-0.1z" fill="#E44642"/>
</g>
</defs>
<g>
<use xlink:href="#a"/>
<use xlink:href="#b"/>
</g>
</svg>
